<?xml version="1.0" encoding="UTF-8"?>
<svg version="1.1" viewBox="0 0 2000 2000" width="500" height="500" xmlns="http://www.w3.org/2000/svg">
<path transform="translate(1475,387)" d="m0 0h33l8 3 5 5 2 5 1 7v21l-2 14-5 14-7 12-9 10-29 29-8 7-18 18-8 7-11 11-11 9-2 2v19l2 30 3 32 3-1h12l5 3 3 5v6l-6 8-10 9-3 3-1 3 1 25 3 37 1 3h13l6 4 3 5-1 7-4 7-9 8-4 6-1 3v11l1 7 3 43 2 28v15l-6 8-3 3h-2l-2 4-8 8-4-2-9-33-12-43-16-54-13-48-8-19-11-13-10-13-11-13-8-10v-2l-6 1-11 10-9 7-11 10-11 9-13 11-11 9-11 10-10 8-16 15-13 11-14 12-11 9-6 5v13l5 43 5 38 1 14-9 11-5 4-4-1-12-20-14-22-15-26-3-4-6 1-14 4-10 6-7 2h-8l-4-5-3-6 10-14 4-10 3-12v-2l-5-2-13-8-20-12-14-9-16-10-5-4 2-5 7-7 5-3h10l47 5 49 6 5-5 13-14 7-8 11-13 9-10 24-28 9-11 11-13 12-14 9-10 7-8 10-12 3-4-2-4-12-10-14-11-10-9-14-11-8-4-24-7-19-6-45-12-44-13-43-12-14-4-1-3 7-8 10-9 4-5h10l70 6 15 1h15l15-16 5-3h7l6 4 3 5-1 13 39 3 9 1h17l10-8 9-9 4-2h7l5 3 3 6v14l73 5 7-1 10-10 2-3h2l2-4 15-16 16-17 12-12 7-8 9-9 5-6 8-7 8-6 16-8z" fill="#F5DD7E"/>
<path transform="translate(1054,841)" d="m0 0h2l-3 9-11 17-15 23-10 16-15 22-11 16-15 22-10 14-9 13-10 14-12 16-10 13-12 14-10 13-12 13-3 3-1 19-1 159-3 13-6 12-9 11-9 8-13 8-14 6-24 6-14 2h-37l-15-2-20-5-16-6-17-12-7-7-8-10-4 1-16 9-22 12-25 11-33 11-22 6-14 5-9 2-9 1h-16l-13-2-15-4-21-10-18-13-16-16-10-13-11-19-6-17-46-1-1-20v-21l1-1h37v-23l-30 1-7-1-1-21v-21l1-1h46l3-9 4-10 15-24 12-14 12-11 13-9 14-8 18-6 13-3h30l21 6 17 7 15 10 10 8 8 7 9 11 8 11 6 10 1 4-5 5-16 8-14 6-3-1-11-16-11-12-13-10-14-7-13-3h-17l-16 3-10 4-11 7-12 11-9 12-4 8-1 5h80l14 1 1 4v27l-1 9-2 3h-105l1 21h87l19 1 1 1v34l-2 7h-95l8 15 10 13 10 9 15 8 15 5 10 2h9l16-4 12-5 13-8 13-13 10-16 3-4h14l18-8 17-10 21-12 8-2 1-151 2-3h48l1 1 1 115 9-9 12-9 16-13 14-11 13-11 11-9 12-11 8-7 8-8 10-8 5-3 2-10 2-6 13-2 8-7 12-11 13-12 22-22 8-7 11-11 5-6 16-16 9-11 10-10 7-8 9-9 7-8 12-14 11-13 8-10 11-13 11-14 12-14zm-220 300-7 7-7 8-10 9-9 10-12 12-8 7-8 8-11 9-9 8-11 9-11 10-9 6-4 2 1 6 7 12 7 8 12 8 10 3 6 1h29l15-3 10-5 11-10 5-10 5-19 1-30-1-66z" fill="#1B174E"/>
<path transform="translate(498,1042)" d="m0 0h30l21 6 17 7 15 10 10 8 8 7 9 11 8 11 6 10 1 4-5 5-16 8-14 6-3-1-11-16-11-12-13-10-14-7-13-3h-17l-16 3-10 4-11 7-12 11-9 12-4 8-1 5h80l14 1 1 4v27l-1 9-2 3h-105l1 21h87l19 1 1 1v34l-2 7h-95l8 15 10 13 10 9 15 8 15 5 10 2h9l16-4 12-5 13-8 13-13 10-16 3-4h14l18-8 17-10 21-12 9-2 1 38 5 19 3 9-15 9-26 14-25 11-33 11-22 6-14 5-9 2-9 1h-16l-13-2-15-4-21-10-18-13-16-16-10-13-11-19-6-17-46-1-1-20v-21l1-1h37v-23l-30 1-7-1-1-21v-21l1-1h46l3-9 4-10 15-24 12-14 12-11 13-9 14-8 18-6z" fill="#BE9740"/>
<path transform="translate(947,1061)" d="m0 0h138l22 2 17 4 18 10 13 13 7 14 5 21v23l-5 23-6 14-11 12-10 6-14 6h-2l-1 7 7 14 17 28 19 32 12 20 4 7v2l-2 1h-53l-6-9-15-27-24-42-13-23-68-1v101l-2 1h-48v-258zm50 43-1 1v69h88l12-4 11-8 6-8 2-8v-15l-3-9-10-10-12-6-9-2z" fill="#1B174E"/>
<path transform="translate(1314,1059)" d="m0 0h31l22 4 15 5 22 12 16 13 13 13 11 15 6 11 6 14 7 25 1 8v27l-2 14-8 26-8 16-7 11-8 10-13 13-15 11-16 9-21 8-20 4-21 1-22-2-15-4-12-5-16-8-12-8-10-9-8-7-9-10-12-19-8-19-5-21-1-9v-31l3-18 7-21 8-15 11-15 9-10 8-8 15-11 18-10 21-7zm8 48-15 3-12 4-12 6-10 8-12 12-8 13-6 13-3 13v31l4 13 9 19 10 11 5 5 11 9 14 7 14 5 18 2 15-1 14-4 17-8 13-10 6-5 12-17 6-13 4-19v-20l-3-16-5-13-10-16-12-12-10-7-17-8-15-4-5-1z" fill="#1B174E"/>
<path transform="translate(1015,741)" d="m0 0h10l47 5 49 6 9-2v-2l12-6 3 1-1 3v-2h-2l3 8 3 5 9 7v2l5 1 2 2-1 5-4 5-3 5-1 13 2 14 1 5 2 1-1 10 1 14 4 28v12l2 7-1 5-1 4h-2l-2 5-4-1-3-2-4-7v-3l-4-2-6-7-2-3-4-4-1-4-5-2-15-26-3-4-6 1-14 4-10 6-7 2h-8l-4-5-3-6 10-14 4-10 3-12v-2l-5-2-13-8-20-12-14-9-16-10-5-4 2-5 7-7z" fill="#D7B754"/>
<path transform="translate(1105,1364)" d="m0 0h40l5 10 13 29 11 25 8 18 17 38 8 20v2l-8 1h-31l-3-2-9-24-1-2h-61l-9 24-2 3-14 1h-27l1-4 13-30 9-20 13-29 14-32 12-27zm18 42-4 8-10 27-3 6v2h37l-3-9-11-28-4-6z" fill="#1B174F"/>
<path transform="translate(663,1214)" d="m0 0h1l1 38 5 19 3 9-15 9-26 14-25 11-33 11-22 6-14 5-9 2-9 1h-16l-13-2-15-4-21-10-15-11v-1h5l4 4 6 1v2l5 2 6-2h6l-1-5-1-1-1-10v-2l-1-6h2l-5-8v-4l-3-1v-3h-2l-3-5 1-2 11 10 15 8 15 5 10 2h9l16-4 12-5 13-8 13-13 10-16 3-4h14l18-8 17-10 21-12z" fill="#D7B754"/>
<path transform="translate(967,1361)" d="m0 0h22l16 2 15 4 11 5-3 9-9 21-21-7-14-2h-15l-9 3-4 5v6l1 4 6 2 13 5 24 5 16 6 11 8 6 8 3 8 1 12-2 13-7 12-11 9-10 5-16 4-6 1h-26l-18-3-15-5-11-6-1-4 11-25 4-1 15 7 12 4 16 2 13-1 7-3 4-5v-6l-2-4-9-4-40-10-15-8-6-5-5-8-4-13v-8l4-13 6-10 8-8 14-7 12-3z" fill="#1B174E"/>
<path transform="translate(677,1364)" d="m0 0h43l7 15 12 29 11 27 6 14 2 5h2l7-15 11-26 11-27 7-16 4-6h38l-1 5-13 29-14 33-15 34-16 39-4 3h-23l-14-1-6-12-10-24-13-30-14-34-15-35-3-5z" fill="#1B174E"/>
<path transform="translate(834,1077)" d="m0 0h1l1 8v35l-1 21-7 7-7 8-11 10-7 8-14 14-8 7-8 8-11 9-9 8-11 9-11 10-9 6-3 1-3-12-1-10v-47h2l2-4 10-9 13-10 16-13 14-11 14-12 11-9 17-16 13-12z" fill="#F4DC7D"/>
<path transform="translate(498,1042)" d="m0 0h30l21 6 17 7 15 10 10 8 8 7 9 11 8 11 6 10 1 4-5 5-16 8-14 6-3-1-11-16-11-12-13-10-14-7-13-3h-17l-16 3-10 4-11 7-10 9-1-2 2-7 7-8 4-4-1-5 2-6h-4l-1-4-5-1h-7l-3-1-11 4-7 3-4 4h-2v2l-7 6-2-1 13-14 11-9 10-7 14-8 18-6z" fill="#D7B754"/>
<path transform="translate(1153,472)" d="m0 0 5 2-1 4-4 3 2 2-1 6-4-1 1 19v12l3 14-2 2h-3l-7 1-5 1-41-11-30-9-46-13-15-4-4-2 2-5 19-19h10l70 6 22 2h16v-2l6-1 1-5z" fill="#D7B754"/>
<path transform="translate(1054,841)" d="m0 0h2l-3 9-11 17-15 23-10 16-15 22-11 16-15 22-10 14-9 13-10 14-12 16-10 13-12 14-10 13-12 13-4 3v-19h-27l-7-1 6-7 12-11 13-12 22-22 8-7 11-11 5-6 16-16 9-11 10-10 7-8 9-9 7-8 12-14 11-13 8-10 11-13 11-14 12-14z" fill="#F4DC7E"/>
<path transform="translate(851,1364)" d="m0 0h39v142l-2 1h-36l-1-1z" fill="#1B174E"/>
<path transform="translate(451,1136)" d="m0 0h72l14 1 1 4v27l-1 9-2 3h-102v-1l18-1 5-2 9-1 3-2 10-3-3-4 1-4-2-2 5-9h2v-4l-12-3-5-3-7-1-3-1v-2z" fill="#D8B855"/>
<path transform="translate(469,1201)" d="m0 0h49l19 1 1 1v34l-2 7h-89v-1l31-1v-2l2-1-3-3v-6l2 3 1-7-1-3 2-4v-7l-12-7-1-3z" fill="#D8B855"/>
<path transform="translate(585,1246)" d="m0 0 14 1 3 5 12 4v2l6 1 2 1 1 7-3 5-3 6h-2l-2 5-4 2v3h-3l-2 5-7 6-4 2-2 2-9 5v-3h-4v-7l-4-2-4-4-1-4 1-6-3-1-4 3h-10l5-4 14-14 10-16z" fill="#F4DC7D"/>
<path transform="translate(553,1050)" d="m0 0 13 5 15 10 10 8 8 7 9 11 8 11 6 10 1 4-5 5-16 8-14 6-3-1-11-16-11-12-2-3h3l6 3 10 4v-2h3v-6l3-7 1-2-2-9-9-12v-3h-2v-2h-2v-2h-2l-4-4v-2l-5-1-2-1v-2l-5-1-2-3z" fill="#F5DD7E"/>
<path transform="translate(1191,964)" d="m0 0 3 1 5 15 3 5 19 1 2 3-5 5-10 7v12l2 8v4l-7-2-10-7-6 1-12 7h-4l2-10 1-11-7-8-7-6 1-4 20-1 3-2 5-16z" fill="#F8DA2E"/>
<path transform="translate(1357,1396)" d="m0 0h3v7l-3 13 1 4 9 6 5 4-1 4-17 3-2 1-4 16-2 3-4-2-8-15-23-1 1-4 7-7 5-4v-7l-5-14v-3l3-1 7 4 3 3 9 2 6-4z" fill="#F8DA2F"/>
<path transform="translate(1438,953)" d="m0 0 5 1-1 10-1 9 1 3 17 9 1 3-8 3-13 3-3 18-1 3-5-1-7-12-1-1h-23l-1-4 9-9 3-7-1-6-7-13v-3l6 2 13 6 5-1 8-7z" fill="#F8DA2D"/>
<path transform="translate(1462,1353)" d="m0 0h3l3 12 3 8 21 2 2 1-2 5-10 7-3 3 1 10 1 5v7l-5-1-12-8-5 1-12 8h-4l1-9 3-12-5-5-11-9-1-3 1-1 24-1 2-10 4-9z" fill="#F8DA2E"/>
<path transform="translate(1323,926)" d="m0 0h2v9l-2 10 1 5 16 10-1 4-13 2-8 1-4 17-2 3-4-2-8-15-1-1-17 1-4-2 6-7 7-8-1-7-5-13 1-4 19 10 5-1 8-8z" fill="#F8DA2D"/>
<path transform="translate(1566,1144)" d="m0 0 3 1 2 9 1 10 16 6 4 2v3l-16 8-1 9-1 12h-3l-8-7-5-5-7 1-12 5h-3l1-6 7-13-1-5-8-9-2-3v-3h9l13 1 9-14z" fill="#F8DA2E"/>
<path transform="translate(1509,1030)" d="m0 0 5 2 9 12 2 2 6-1 12-3 4 1-1 4-7 9-2 4 1 6 8 13v1h-9l-7-2h-7l-7 9-2 4-5 1-1-2-1-21-16-4-4-2 1-3 13-6 6-2 1-21z" fill="#F8DA2E"/>
<path transform="translate(1524,1265)" d="m0 0 5 2 10 10 7 1 10-7 3-2h3l-1 8-5 12 1 4 11 11 1 4h-21l-6 10-5 9-3-2-3-15v-5l-18-2-5-2 2-4 15-10-2-12v-9z" fill="#F8DA2F"/>
<path transform="translate(1024,481)" d="m0 0h14l11 4 5 4 1 5h-2l-2 5-2 2-11 1-7-1-7 1h-5l-1-3-3 1-4-4-1-4 1-3 8-5z" fill="#BE9740"/>
<path transform="translate(1015,745)" d="m0 0h13l4 1h2v2l5 2 8 1 4 4-3 1 1 4-3 2 1 8-6-1-8-1-7-1-2-4-7-1-7-5-2-5h-4l1-3 4-1z" fill="#BE9740"/>
<path transform="translate(1160,817)" d="m0 0 2 2 7 52 2 19-1 7-10 11-3 2-4-1-12-20-13-20 1-2 5 3 1 5 4 2 1 5 4 2 5 5 3 6 1 4 6 2 3-4h2l1-9-2-7v-12l-2-14-1-12-1-2-1-19z" fill="#F4DC7D"/>
<path transform="translate(715,1177)" d="m0 0h2l1 49 3 19-2 1-3-12-1-10z" fill="#CCA94B"/>
<path transform="translate(1438,953)" d="m0 0 5 1-1 10-2 6-2-4-9-1 6-8z" fill="#F5DD7F"/>
<path transform="translate(1566,1144)" d="m0 0 3 1 2 9v8h-1v-5l-6-1-4 2-3-1 7-11z" fill="#F5DD7E"/>
<path transform="translate(1357,1396)" d="m0 0h3v7l-2 8-1-2h-2v-2h-6l-4 1 2-4z" fill="#F5DD7E"/>
<path transform="translate(1323,926)" d="m0 0h2v9l-2 4-5-3-6 1 6-7z" fill="#F5DD7E"/>
<path transform="translate(1462,1353)" d="m0 0h3l2 11-10 1 3-10z" fill="#F5DD7E"/>
<path transform="translate(1559,1269)" d="m0 0h3l-1 8-2 5-2-4-4-1-3-2z" fill="#F5DD7E"/>
<path transform="translate(1539,1188)" d="m0 0 4 1v2l8 1-4 3-8 3h-3l1-6z" fill="#F5DD7E"/>
<path transform="translate(1509,1030)" d="m0 0 5 2 4 6h-6l-2 2-1 11h-1v-20z" fill="#F5DD7E"/>
<path transform="translate(1161,985)" d="m0 0h15v1l-7 2-2 6-5-3-2-2z" fill="#F5DD7E"/>
<path transform="translate(1191,964)" d="m0 0 3 1 2 10h-9l2-9z" fill="#F5DD7E"/>
<path transform="translate(1402,959)" d="m0 0 6 2 6 3-4 2-2 5-4-5-2-4z" fill="#F5DD7E"/>
<path transform="translate(1524,1265)" d="m0 0 5 2 4 4-1 2-6 1-2 2-1-1v-9z" fill="#F5DD7E"/>
<path transform="translate(1404,991)" d="m0 0 2 4 1 3 2 2-2 1h-8l-1-4z" fill="#F5DD7E"/>
<path transform="translate(1203,986)" d="m0 0h18l2 3-5 5-2-4-1-3h-12z" fill="#F5DD7E"/>
<path transform="translate(1431,1374)" d="m0 0h20v1h-14l-1 6-5-3-1-3z" fill="#F5DD80"/>
<path transform="translate(1321,1399)" d="m0 0 7 3 1 2-5 2-3 2-2-5v-3z" fill="#F5DD7E"/>
<path transform="translate(716,1226)" d="m0 0h2l3 19-2 1-3-12z" fill="#CFAE4E"/>
<path transform="translate(1543,1042)" d="m0 0 4 1-1 4-4 4v-4l-4-2 1-2z" fill="#F5DD7E"/>
<path transform="translate(1285,929)" d="m0 0 9 4-4 5-3-1-2-4z" fill="#F5DD7E"/>
<path transform="translate(1486,1375)" d="m0 0h6l2 1-2 5-3 2z" fill="#F5DD7E"/>
<path transform="translate(1533,1159)" d="m0 0h9l-3 5-2 3-4-5z" fill="#F5DD7E"/>
<path transform="translate(646,1221)" d="m0 0 1 2-5 3-1 2-3 2-7 1 4-4z" fill="#F5DD7E"/>
<path transform="translate(1306,980)" d="m0 0 8 1-1 5h-4l-3-4z" fill="#F5DD7E"/>
<path transform="translate(1512,1295)" d="m0 0h2v6l-5 1v-4z" fill="#F5DD7E"/>
<path transform="translate(1056,840)" d="m0 0" fill="#F5DD7E"/>
</svg>
